# xmcd
#
# Track frame offsets:
#	150
#	10373
#	21262
#	31015
#	41652
#	51963
#	61163
#	68424
#	80405
#
# Disc length: 1198 seconds
#
# Revision: 1
# Processed by: cddbd v1.5.2PL0 Copyright (c) Steve Scherf et al.
# Submitted via: audiograbber 1.83.01
#
DISCID=6704ac09
DTITLE=Porter Wagoner - Howdy Neighbor, Howdy
DYEAR=1970
DGENRE=Country
TTITLE0=Howdy Neighbor, Howdy
TTITLE1=I Wonder How The Old Folks Are At Home
TTITLE2=Blue Moon Of Kentucky
TTITLE3=Cotton Fields
TTITLE4=A Gathering In The Sky
TTITLE5=Country Music Has Gone To Town
TTITLE6=Head Over Heals In Love With You
TTITLE7=Before I Met You
TTITLE8=Little Cabin Home On The Hill
EXTD=
EXTT0=
EXTT1=
EXTT2=
EXTT3=
EXTT4=
EXTT5=
EXTT6=
EXTT7=
EXTT8=
PLAYORDER=
